<svg width="1300" height="1300" viewBox="0 0 1300 1300" fill="none" xmlns="http://www.w3.org/2000/svg">
<mask id="mask0_32_1412" style="mask-type:alpha" maskUnits="userSpaceOnUse" x="0" y="0" width="1300" height="1300">
<path d="M650 1300C290.71 1300 0 1008.86 0 650C0 290.71 291.141 0 650 0C1009.29 0 1300 291.141 1300 650C1300.43 1009.29 1009.29 1300 650 1300Z" fill="#F7C0B5"/>
</mask>
<g mask="url(#mask0_32_1412)">
<path d="M1015.73 1197.33C1012.7 1199.5 1009.23 1201.66 1006.2 1203.83C1002.73 1206 999.697 1208.16 996.231 1209.9C993.197 1211.63 990.597 1213.36 987.564 1215.1C987.131 1215.53 986.697 1215.53 986.264 1215.96C976.297 1222.03 965.897 1227.66 955.497 1232.86C952.464 1234.6 948.997 1236.33 945.964 1237.63C945.964 1237.63 945.531 1238.06 945.098 1238.06C941.631 1239.8 938.164 1241.53 934.697 1243.26C927.764 1246.73 920.398 1249.76 913.464 1252.8C909.998 1254.53 906.098 1255.83 902.631 1257.13C899.164 1258.43 895.264 1260.16 891.798 1261.46C888.331 1262.76 884.431 1264.5 880.964 1265.8C880.964 1265.8 880.964 1265.8 880.531 1265.8C877.064 1267.1 873.164 1268.4 869.698 1269.7C861.898 1272.3 853.664 1274.9 845.864 1277.5C843.264 1278.36 840.231 1279.23 837.631 1280.1C829.398 1282.7 821.164 1284.86 812.931 1286.6C809.898 1287.46 806.864 1287.9 803.398 1288.76C795.598 1290.5 787.364 1292.23 779.564 1293.96C777.831 1294.4 776.531 1294.4 774.798 1294.83C772.198 1295.26 769.164 1295.7 766.564 1296.13C762.664 1296.56 759.198 1297.43 755.298 1297.86C753.564 1298.3 751.831 1298.3 750.098 1298.73C747.931 1299.16 745.331 1299.6 742.731 1299.6C735.798 1300.46 728.431 1301.33 721.498 1302.2C719.331 1302.63 716.731 1302.63 714.564 1303.06H714.131C711.098 1303.5 708.064 1303.5 705.031 1303.93C701.998 1304.36 698.964 1304.36 695.931 1304.36C694.198 1304.36 692.031 1304.8 690.298 1304.8C686.831 1304.8 683.798 1305.23 680.764 1305.23C676.431 1305.23 672.531 1305.66 668.198 1305.66C663.864 1305.66 659.964 1305.66 655.631 1305.66C652.598 1305.66 649.564 1305.66 646.531 1305.66C464.098 1303.06 299.431 1225.5 182.431 1102.43C182.431 1102.43 182.431 1102 181.998 1102C195.431 1075.56 245.265 1027.9 297.265 988.465C363.131 938.631 456.298 907.865 456.298 907.865C456.298 907.865 517.398 897.898 744.031 945.131C916.931 981.531 990.597 1129.3 1015.73 1197.33Z" fill="#FEE4BF"/>
<path d="M792.131 1065.16C783.031 1109.8 724.098 1136.23 624.865 1096.36C503.098 1046.96 456.298 907.864 456.298 907.864C449.798 808.198 434.632 722.831 434.632 722.831C575.465 710.698 741.865 875.364 741.865 875.364L760.931 956.831C762.665 963.764 766.131 969.831 771.331 974.164C780.431 989.764 798.198 1036.56 792.131 1065.16Z" fill="#FEE4BF"/>
<path d="M771.331 974.598C688.564 970.264 627.464 958.131 562.031 840.698C617.498 889.664 682.931 908.298 751.831 916.964L760.931 956.831C762.664 964.198 766.131 970.264 771.331 974.598Z" fill="#EFBDA5"/>
<path d="M942.497 452.431C950.297 488.831 954.197 518.298 932.964 615.365C911.731 712.431 952.464 809.498 850.197 898.331C781.297 958.131 660.831 969.398 564.631 903.965C532.131 881.865 502.231 851.098 477.964 810.798C458.898 779.165 436.798 749.265 412.098 721.965C377.864 684.698 336.698 609.731 357.064 477.131C389.998 261.332 603.631 236.632 729.731 260.465C855.831 284.298 921.264 356.231 942.497 452.431Z" fill="#FEE4BF"/>
<path d="M527.797 621.865C527.797 621.865 514.364 556.865 451.097 564.665C396.497 571.598 377.431 702.465 501.364 738.865" fill="#FEE4BF"/>
<path d="M497.465 679.498C497.465 679.498 481.865 669.531 483.598 652.198C486.198 631.831 483.598 619.265 474.065 615.365C450.231 605.398 445.465 633.131 446.331 636.598" stroke="#423232" stroke-width="13.4786" stroke-miterlimit="10" stroke-linecap="round" stroke-linejoin="round"/>
<path d="M828.097 721.531C828.097 721.531 844.564 722.398 860.164 703.765C868.83 693.365 876.197 680.365 871.43 676.465C866.664 672.131 788.23 684.265 783.03 694.665C777.83 705.065 808.164 721.531 828.097 721.531Z" fill="#EFBDA5"/>
<path d="M841.098 575.932C841.098 575.932 841.965 617.098 868.398 663.031C880.098 683.398 862.331 716.765 823.765 722.398" stroke="#423232" stroke-width="13.4786" stroke-miterlimit="10" stroke-linecap="round" stroke-linejoin="round"/>
<path opacity="0.42" d="M606.231 743.631C630.881 743.631 650.864 727.14 650.864 706.798C650.864 686.455 630.881 669.965 606.231 669.965C581.581 669.965 561.598 686.455 561.598 706.798C561.598 727.14 581.581 743.631 606.231 743.631Z" fill="#F2A5B2"/>
<path opacity="0.42" d="M926.03 670.831C924.73 695.098 925.164 718.931 923.43 742.764C904.364 738.431 890.497 724.131 890.497 707.231C890.497 689.031 905.664 674.298 926.03 670.831Z" fill="#F2A5B2"/>
<path d="M377.808 891.366C377.808 891.366 441.074 866.233 452.774 865.366L453.641 875.333C453.641 875.333 403.374 897 400.341 900.466C397.741 903.5 377.808 891.366 377.808 891.366Z" fill="#7E5D6D"/>
<path d="M1158.24 1453.4H62.7739C62.7739 1453.4 69.2739 1252.33 135.141 1108.9C184.974 1000.57 304.574 929.066 391.674 897.866C416.374 889.199 435.441 879.666 453.207 874.899C453.207 877.066 454.507 893.099 454.507 894.833C454.507 894.833 522.974 961.999 677.24 970.233C748.74 974.133 755.674 929.499 755.674 929.499C763.907 927.766 771.707 925.599 779.507 922.999C782.107 922.133 800.307 914.766 802.474 913.899C858.374 928.633 926.84 970.233 1026.07 1053.43C1138.31 1148.33 1158.24 1453.4 1158.24 1453.4Z" fill="#423232"/>
<mask id="mask1_32_1412" style="mask-type:alpha" maskUnits="userSpaceOnUse" x="62" y="874" width="1097" height="580">
<path d="M1158.24 1453.4H62.772C62.772 1453.4 69.272 1252.33 135.139 1108.9C184.972 1000.57 304.572 929.067 391.672 897.867C416.372 889.2 435.439 879.667 453.205 874.9C453.205 877.067 454.505 893.1 454.505 894.833C454.505 894.833 522.972 962 677.239 970.233C748.739 974.133 755.672 929.5 755.672 929.5C763.905 927.767 771.705 925.6 779.505 923C782.105 922.133 800.305 914.767 802.472 913.9C858.372 928.633 926.838 970.233 1026.07 1053.43C1138.31 1148.33 1158.24 1453.4 1158.24 1453.4Z" fill="#423232"/>
</mask>
<g mask="url(#mask1_32_1412)">
<path d="M453.641 947.266C499.141 1011.4 620.475 1109.33 717.541 1127.97C763.908 1136.63 830.208 977.6 769.975 913.466C718.408 858.433 499.141 844.133 464.041 868.4C421.141 897 442.375 931.666 453.641 947.266Z" stroke="#FFFF8D" stroke-width="22.4643" stroke-miterlimit="10"/>
</g>
<path d="M947.207 1012.7C975.207 1012.7 997.907 990.001 997.907 962C997.907 933.999 975.207 911.3 947.207 911.3C919.206 911.3 896.507 933.999 896.507 962C896.507 990.001 919.206 1012.7 947.207 1012.7Z" fill="#FFFF8D"/>
<path d="M277.273 1453.4L257.773 1293.07" stroke="#544D4D" stroke-width="13.4786" stroke-miterlimit="10" stroke-linecap="round" stroke-linejoin="round"/>
<path d="M1033.87 1238.03C1033.87 1238.03 1020.87 1269.67 1024.77 1301.3C1028.67 1332.93 1039.94 1379.3 1023.91 1453.4" stroke="#544D4D" stroke-width="13.4786" stroke-miterlimit="10" stroke-linecap="round" stroke-linejoin="round"/>
<path d="M377.807 891.366C386.04 888.766 400.34 891.366 404.673 898.733C421.573 926.466 462.307 1007.5 479.207 1168.27C492.64 1293.93 472.273 1520.13 472.273 1520.13L51.5068 1500.2C51.5068 1500.2 64.0735 1286.57 100.907 1143.13C136.873 1004.03 231.34 941.633 377.807 891.366Z" fill="white"/>
<path d="M813.306 917.799C813.306 917.799 947.206 1169.57 908.206 1505.83H1197.24C1197.24 1505.83 1195.94 1238.9 1130.94 1093.73C1065.94 948.999 838.439 906.533 838.439 906.533C838.439 906.533 824.139 913.466 813.306 917.799Z" fill="white"/>
<path d="M813.307 917.8L802.907 914.766C802.907 914.766 818.073 907.4 824.573 903.066L828.473 900.9C828.473 900.9 849.273 910.433 856.64 913.9C864.007 917.366 831.073 933.4 831.073 933.4C831.073 933.4 814.607 917.8 813.307 917.8Z" fill="#7E5D6D"/>
<path d="M341.84 1040C341.84 1040 282.04 1082.03 287.673 1126.67C293.307 1171.3 477.473 1450.8 477.473 1450.8C477.473 1450.8 499.14 1299.13 474.44 1127.53C474.44 1127.53 456.673 1103.7 424.173 1079.87C402.507 1064.7 374.773 1048.67 341.84 1040Z" fill="#AD7E5A"/>
<path d="M1041.24 1126.67C1042.97 1098.93 978.84 1053.87 978.84 1053.87C953.273 1061.23 935.073 1072.93 922.073 1085.5C893.04 1112.8 889.14 1143.57 889.14 1143.57L890.873 1151.37C921.64 1285.27 912.54 1459.47 912.54 1459.47C912.54 1459.47 1039.51 1154.4 1041.24 1126.67Z" fill="#AD7E5A"/>
<path d="M474.007 1127.53C474.007 1127.53 443.674 1095.47 407.274 1072.93C326.674 1023.1 208.374 1000.13 207.074 961.566C206.207 918.233 350.074 827.666 445.407 796.9C445.407 797.333 445.407 797.766 445.407 798.2C445.407 798.633 445.407 799.066 445.407 799.933C445.407 800.8 445.407 801.666 445.841 802.533C445.841 803.833 446.274 805.133 446.274 806.433C446.274 807.3 446.274 807.733 446.707 808.6C449.741 834.6 452.341 863.633 454.507 894.4V894.833C454.507 894.833 434.574 901.333 448.874 1000.57C452.774 1024.83 467.507 1067.3 474.007 1127.53Z" fill="#AD7E5A"/>
<path d="M889.14 1141.4C889.14 1141.4 860.106 1028.73 845.806 992.766C831.506 957.233 804.64 916.933 803.34 914.766C820.24 906.966 835.406 897 848.84 885.3C862.273 873.6 873.106 861.9 882.206 850.2C930.74 875.766 1069.84 956.366 1076.77 996.666C1084.57 1040.43 916.006 1037.83 889.14 1141.4Z" fill="#AD7E5A"/>
<path d="M732.707 1204.67C760.708 1204.67 783.407 1181.97 783.407 1153.97C783.407 1125.97 760.708 1103.27 732.707 1103.27C704.706 1103.27 682.007 1125.97 682.007 1153.97C682.007 1181.97 704.706 1204.67 732.707 1204.67Z" fill="#FFFF8D"/>
<path d="M732.707 1179.97C747.066 1179.97 758.707 1168.33 758.707 1153.97C758.707 1139.61 747.066 1127.97 732.707 1127.97C718.348 1127.97 706.707 1139.61 706.707 1153.97C706.707 1168.33 718.348 1179.97 732.707 1179.97Z" fill="#FFBE71"/>
<path d="M978.84 1053.87C953.273 1061.23 935.073 1072.93 922.073 1085.5C893.04 1112.8 889.14 1143.57 889.14 1143.57" stroke="#894B33" stroke-width="13.4786" stroke-miterlimit="10" stroke-linecap="round" stroke-linejoin="round"/>
<path d="M474.006 1127.53C474.006 1127.53 456.24 1103.7 423.74 1079.87C402.506 1064.27 374.773 1048.67 341.406 1039.57" stroke="#894B33" stroke-width="13.4786" stroke-miterlimit="10" stroke-linecap="round" stroke-linejoin="round"/>
<path d="M745.801 526.549C755.216 527.849 762.49 517.882 759.067 508.349C757.355 503.149 754.36 498.382 749.653 495.349C735.103 486.249 680.758 485.382 652.088 506.182C626.841 525.249 703.01 520.482 745.801 526.549Z" fill="#423232"/>
<path d="M864.332 531.315C856.63 531.315 851.923 521.349 855.774 513.115C857.914 508.782 860.909 504.882 865.188 502.715C878.453 496.215 913.971 500.115 929.803 522.215C943.925 541.715 899.849 530.882 864.332 531.315Z" fill="#423232"/>
<path d="M730.823 581.149C703.436 567.282 660.217 577.682 660.217 577.682" stroke="#423232" stroke-width="13.4786" stroke-miterlimit="10" stroke-linecap="round" stroke-linejoin="round"/>
<path d="M899.853 589.816C899.853 589.816 888.727 577.683 847.647 587.216" stroke="#423232" stroke-width="13.4786" stroke-miterlimit="10" stroke-linecap="round" stroke-linejoin="round"/>
<path d="M813.78 751.08C813.78 751.08 825.462 744.79 831.752 755.573C838.042 766.356 822.766 778.487 822.766 778.487C822.766 778.487 839.839 791.067 828.157 806.792C818.722 819.372 804.345 818.473 804.345 818.473" stroke="#423232" stroke-width="13.4786" stroke-miterlimit="10" stroke-linecap="round" stroke-linejoin="round"/>
<path d="M940.302 574.421C952.002 508.555 948.535 482.555 941.602 451.788C939.435 442.255 936.835 433.155 933.802 424.055C910.835 405.855 886.569 394.155 849.735 388.955C750.502 375.521 672.069 384.621 588.435 402.821C536.002 414.088 546.835 595.221 526.469 619.054C523.002 606.921 506.102 557.521 450.635 564.455C398.202 570.955 378.269 692.288 486.602 733.888C485.735 757.721 463.635 801.921 445.869 811.888C445.869 811.888 442.835 780.254 408.169 738.654C373.502 697.054 304.169 589.155 350.969 431.421C397.769 273.688 609.669 191.355 806.835 271.521C840.635 285.388 868.369 304.888 890.469 325.255C942.469 372.921 970.202 442.255 961.969 512.021C959.802 535.421 953.302 557.955 940.302 574.421Z" fill="#423232"/>
<path d="M872.702 377.255C872.702 377.255 744.869 573.121 506.535 512.455C506.535 512.455 460.169 395.888 561.135 351.255C662.535 307.055 848.435 338.255 872.702 377.255Z" fill="#423232"/>
<path d="M859.268 379.855C859.268 379.855 875.735 425.355 908.235 462.188C929.468 486.021 957.202 505.955 991.868 506.821C991.868 506.821 1002.7 388.955 925.568 343.021C848.435 296.655 859.268 379.855 859.268 379.855Z" fill="#423232"/>
<path d="M542.503 304.888C542.503 304.888 402.97 87.7881 280.336 245.088C157.703 402.388 291.603 813.188 217.07 936.688C217.07 936.688 302.436 874.721 324.97 753.388C324.97 753.388 327.57 803.654 312.403 873.854C312.403 873.854 402.97 769.421 402.97 644.188C402.97 518.955 493.536 336.955 542.503 304.888Z" fill="#423232"/>
<path d="M948.102 549.288C963.702 615.588 948.102 730.421 948.102 730.421C948.102 730.421 1138.77 427.521 984.502 312.688C854.502 215.621 574.135 314.421 574.135 314.421C574.135 314.421 837.168 251.155 888.302 372.055C935.102 481.255 940.302 443.555 955.035 508.555C957.202 515.055 945.935 540.188 948.102 549.288Z" fill="#423232"/>
<path d="M749.231 669.067H648.265C621.831 669.067 600.598 647.833 600.598 621.4V580.233C600.598 553.8 621.831 532.567 648.265 532.567H749.231C775.665 532.567 796.898 553.8 796.898 580.233V621.4C796.898 647.833 775.231 669.067 749.231 669.067Z" stroke="#423232" stroke-width="13.4786" stroke-miterlimit="10" stroke-linecap="round" stroke-linejoin="round"/>
<path d="M923.431 532.567H873.598C856.265 532.567 841.965 546.867 841.965 564.2V601.9C848.031 623.567 856.698 644.367 869.698 663C870.998 663 872.298 663.433 873.598 663.433H923.431C940.764 663.433 955.065 649.133 955.065 631.8V564.2C955.498 546.433 941.198 532.567 923.431 532.567Z" stroke="#423232" stroke-width="13.4786" stroke-miterlimit="10" stroke-linecap="round" stroke-linejoin="round"/>
<path d="M796.899 572C811.632 570.267 830.266 568.967 845.865 570.7" stroke="#423232" stroke-width="13.4786" stroke-miterlimit="10" stroke-linecap="round" stroke-linejoin="round"/>
<path d="M600.599 575.033L500.066 578.5" stroke="#423232" stroke-width="13.4786" stroke-miterlimit="10" stroke-linecap="round" stroke-linejoin="round"/>
</g>
</svg>
